<?xml version="1.0" encoding="utf-8"?>
<!-- Generator: Adobe Illustrator 22.0.1, SVG Export Plug-In . SVG Version: 6.00 Build 0)  -->
<svg version="1.1" id="Capa_1" xmlns="http://www.w3.org/2000/svg" xmlns:xlink="http://www.w3.org/1999/xlink" x="0px" y="0px"
	 viewBox="0 0 512 512" style="enable-background:new 0 0 512 512;" xml:space="preserve">
<style type="text/css">
	.st0{fill:#FFFFFF;}
</style>
<g>
	<g>
		<g>
			<path class="st0" d="M0,256c0,141.4,114.6,256,256,256c141.4,0,256-114.6,256-256C512,114.6,397.4,0,256,0S0,114.6,0,256z
				 M477.7,256c0,122.3-99.4,221.7-221.7,221.7S34.2,378.3,34.2,256c0-122.3,99.5-221.7,221.7-221.7
				C378.2,34.3,477.7,133.7,477.7,256z"/>
			<path class="st0" d="M174.2,245c-3.4,3.4-5,7.7-5,12.2s1.6,8.8,5,12.2l111.2,111.2c6.7,6.7,17.6,6.7,24.2,0
				c6.7-6.7,6.7-17.6,0-24.2l-99.1-99.1l99.1-99.1c6.7-6.7,6.7-17.6,0-24.2c-6.7-6.7-17.6-6.7-24.2,0L174.2,245z"/>
		</g>
	</g>
</g>
</svg>
