<?xml version="1.0" encoding="utf-8"?>
<!-- Generator: Adobe Illustrator 22.0.1, SVG Export Plug-In . SVG Version: 6.00 Build 0)  -->
<svg version="1.1" id="Capa_1" xmlns="http://www.w3.org/2000/svg" xmlns:xlink="http://www.w3.org/1999/xlink" x="0px" y="0px"
	 viewBox="0 0 512 512" style="enable-background:new 0 0 512 512;" xml:space="preserve">
<style type="text/css">
	.st0{fill:#FFFFFF;}
</style>
<g>
	<g>
		<g>
			<path class="st0" d="M512,256C512,114.6,397.4,0,256,0S0,114.6,0,256s114.6,256,256,256S512,397.4,512,256z M34.3,256
				c0-122.3,99.4-221.7,221.7-221.7c122.3,0,221.7,99.5,221.7,221.7s-99.5,221.7-221.7,221.7C133.8,477.7,34.3,378.3,34.3,256z"/>
			<path class="st0" d="M337.8,267c3.4-3.4,5-7.7,5-12.2c0-4.4-1.6-8.8-5-12.2L226.6,131.5c-6.7-6.7-17.6-6.7-24.2,0
				c-6.7,6.7-6.7,17.6,0,24.2l99.1,99.1L202.3,354c-6.7,6.7-6.7,17.6,0,24.2c6.7,6.7,17.6,6.7,24.2,0L337.8,267z"/>
		</g>
	</g>
</g>
</svg>
