<?xml version="1.0" encoding="iso-8859-1"?>
<!-- Generator: Adobe Illustrator 19.0.0, SVG Export Plug-In . SVG Version: 6.00 Build 0)  -->
<svg xmlns="http://www.w3.org/2000/svg" xmlns:xlink="http://www.w3.org/1999/xlink" version="1.1" id="Capa_1" x="0px" y="0px" viewBox="0 0 469.983 469.983" style="enable-background:new 0 0 469.983 469.983;" xml:space="preserve" width="512px" height="512px">
<g>
	<path d="M454.631,15.352c-20.469-20.469-53.775-20.469-74.246,0L339.8,55.937l-2.519-22.674c-0.318-2.865-2.251-5.295-4.972-6.249   c-2.72-0.955-5.746-0.264-7.786,1.773L115.928,237.384c-15.583,15.582-24.165,36.3-24.165,58.337   c0,14.317,3.644,28.067,10.456,40.224L6.591,431.573C2.341,435.822,0,441.473,0,447.483s2.341,11.661,6.59,15.909   c4.249,4.25,9.899,6.591,15.91,6.591s11.661-2.341,15.91-6.59l95.628-95.628c12.157,6.812,25.907,10.456,40.225,10.456   c22.036,0,42.754-8.582,58.336-24.164l208.597-208.596c2.038-2.039,2.728-5.065,1.773-7.786s-3.383-4.653-6.249-4.972l-22.673-2.52   l40.584-40.584C475.101,69.129,475.101,35.822,454.631,15.352z M27.803,452.787c-1.416,1.416-3.3,2.196-5.303,2.196   s-3.887-0.78-5.304-2.197c-1.416-1.416-2.196-3.3-2.196-5.303s0.78-3.887,2.197-5.303l93.673-93.673   c1.596,1.91,3.274,3.767,5.056,5.548c1.782,1.782,3.639,3.461,5.549,5.057L27.803,452.787z M221.992,343.45   c-12.749,12.749-29.699,19.771-47.729,19.771c-13.419,0-26.236-3.895-37.172-11.14c-0.072-0.049-0.145-0.093-0.218-0.138   c-3.678-2.457-7.142-5.294-10.341-8.493c-3.195-3.195-6.03-6.655-8.485-10.329c-0.049-0.078-0.096-0.157-0.148-0.234   c-7.243-10.935-11.137-23.75-11.137-37.166c0-18.03,7.021-34.98,19.771-47.729L324.095,50.429l3.58,32.219   c0.388,3.486,3.14,6.239,6.626,6.626l41.765,4.639l4.642,41.768c0.388,3.486,3.14,6.238,6.626,6.626l32.223,3.582L221.992,343.45z    M394.955,128.061c-0.003,0-4.644-41.769-4.644-41.769c-0.388-3.486-3.14-6.239-6.626-6.626l-41.761-4.638l49.069-49.069   c14.62-14.622,38.412-14.619,53.032-0.001c14.621,14.622,14.621,38.413,0,53.033L394.955,128.061z" fill="#FFFFFF"/>
	<path d="M149.515,291.859c-2.07,0-4.017,0.806-5.48,2.27c-3.021,3.022-3.021,7.938,0,10.961c1.464,1.464,3.41,2.27,5.48,2.27   s4.017-0.806,5.48-2.27c3.021-3.022,3.021-7.938,0-10.961C153.531,292.665,151.585,291.859,149.515,291.859z" fill="#FFFFFF"/>
	<path d="M147.924,269.734c3.021-3.022,3.021-7.938,0.026-10.934c-1.445-1.46-3.452-2.297-5.507-2.297   c-2.07,0-4.017,0.806-5.48,2.27c-3.021,3.022-3.021,7.938,0,10.961c1.464,1.464,3.41,2.27,5.48,2.27   C144.498,272.004,146.505,271.167,147.924,269.734z" fill="#FFFFFF"/>
</g>
<g>
</g>
<g>
</g>
<g>
</g>
<g>
</g>
<g>
</g>
<g>
</g>
<g>
</g>
<g>
</g>
<g>
</g>
<g>
</g>
<g>
</g>
<g>
</g>
<g>
</g>
<g>
</g>
<g>
</g>
</svg>
