<?xml version="1.0" encoding="utf-8"?>
<!-- Generator: Adobe Illustrator 22.0.1, SVG Export Plug-In . SVG Version: 6.00 Build 0)  -->
<svg version="1.1" id="Layer_1" xmlns="http://www.w3.org/2000/svg" xmlns:xlink="http://www.w3.org/1999/xlink" x="0px" y="0px"
	 viewBox="0 0 764.7 203.3" style="enable-background:new 0 0 764.7 203.3;" xml:space="preserve">
<style type="text/css">
	.st0{fill:#FFFFFF;}
</style>
<g>
	<circle class="st0" cx="101.5" cy="102.5" r="91.5"/>
	<path class="st0" d="M101.5,14c48.8,0,88.5,39.7,88.5,88.5S150.3,191,101.5,191S13,151.3,13,102.5S52.7,14,101.5,14 M101.5,8
		C49.3,8,7,50.3,7,102.5S49.3,197,101.5,197s94.5-42.3,94.5-94.5S153.7,8,101.5,8L101.5,8z"/>
</g>
<g>
	<path class="st0" d="M382,14c48.8,0,88.5,39.7,88.5,88.5S430.8,191,382,191s-88.5-39.7-88.5-88.5S333.2,14,382,14 M382,8
		c-52.2,0-94.5,42.3-94.5,94.5S329.8,197,382,197s94.5-42.3,94.5-94.5S434.2,8,382,8L382,8z"/>
</g>
<g>
	<path class="st0" d="M662.5,14c48.8,0,88.5,39.7,88.5,88.5S711.3,191,662.5,191S574,151.3,574,102.5S613.7,14,662.5,14 M662.5,8
		C610.3,8,568,50.3,568,102.5s42.3,94.5,94.5,94.5s94.5-42.3,94.5-94.5S714.7,8,662.5,8L662.5,8z"/>
</g>
</svg>
